<svg xmlns="http://www.w3.org/2000/svg" width="36" height="36" viewBox="0 0 512 512">
  <!-- violet part -->
  <path d="M 187,141 L 185,143 L 184,143 L 140,187 L 140,188 L 139,189 L 139,190 L 138,191 L 138,299 L 139,300 L 139,301 L 140,302 L 140,303 L 141,304 L 140,305 L 141,304 L 143,306 L 144,306 L 145,307 L 150,307 L 151,306 L 152,306 L 155,303 L 155,302 L 156,301 L 156,195 L 159,192 L 160,192 L 160,191 L 167,184 L 168,184 L 170,182 L 170,181 L 171,180 L 172,180 L 172,179 L 175,176 L 176,176 L 176,175 L 179,172 L 180,172 L 180,171 L 192,159 L 299,159 L 300,158 L 301,158 L 303,156 L 304,156 L 304,155 L 305,154 L 305,153 L 306,152 L 306,148 L 305,147 L 305,146 L 301,142 L 299,142 L 298,141 Z" fill="#a84fd4" stroke="#a84fd4" stroke-width="1"/>
  <!-- blue part -->
  <path d="M 354,130 L 353,131 L 350,131 L 349,132 L 348,132 L 346,134 L 345,134 L 342,137 L 342,138 L 340,140 L 340,142 L 339,143 L 339,150 L 340,151 L 340,153 L 305,188 L 305,189 L 304,190 L 303,190 L 303,191 L 300,194 L 232,194 L 231,195 L 228,195 L 227,196 L 225,196 L 224,197 L 222,197 L 221,198 L 220,198 L 218,200 L 217,200 L 213,204 L 212,204 L 209,207 L 209,208 L 207,210 L 207,211 L 206,212 L 206,213 L 205,214 L 205,215 L 204,216 L 204,217 L 203,218 L 203,220 L 202,221 L 202,226 L 201,227 L 201,236 L 202,237 L 202,240 L 203,241 L 203,243 L 204,244 L 204,245 L 207,248 L 208,248 L 210,250 L 209,251 L 210,250 L 211,250 L 212,251 L 213,251 L 214,252 L 215,252 L 216,253 L 217,253 L 218,254 L 219,254 L 220,255 L 221,255 L 222,256 L 223,256 L 224,257 L 225,257 L 226,258 L 227,258 L 228,259 L 229,259 L 230,260 L 231,260 L 232,261 L 233,261 L 234,262 L 235,262 L 236,263 L 237,263 L 238,264 L 239,264 L 240,265 L 241,265 L 242,266 L 243,266 L 245,268 L 246,268 L 250,272 L 250,274 L 251,275 L 251,278 L 250,279 L 250,281 L 244,287 L 243,287 L 242,288 L 240,288 L 239,289 L 186,289 L 135,340 L 128,340 L 127,341 L 125,341 L 124,342 L 123,342 L 121,344 L 120,344 L 118,346 L 118,347 L 116,349 L 116,351 L 115,352 L 115,361 L 116,362 L 116,363 L 117,364 L 117,365 L 122,370 L 123,370 L 124,371 L 125,371 L 126,372 L 128,372 L 129,373 L 133,373 L 134,372 L 137,372 L 138,371 L 139,371 L 142,368 L 143,368 L 144,367 L 144,366 L 146,364 L 146,362 L 147,361 L 147,358 L 148,357 L 148,356 L 147,355 L 147,350 L 151,346 L 152,346 L 152,345 L 153,344 L 154,344 L 154,343 L 158,339 L 159,339 L 160,338 L 160,337 L 162,335 L 163,335 L 168,330 L 168,329 L 169,328 L 170,328 L 189,309 L 243,309 L 244,308 L 247,308 L 248,307 L 250,307 L 251,306 L 252,306 L 253,305 L 254,305 L 255,304 L 256,304 L 257,303 L 258,303 L 261,300 L 262,300 L 266,296 L 266,295 L 268,293 L 268,292 L 269,291 L 269,290 L 270,289 L 270,288 L 271,287 L 271,286 L 272,285 L 272,281 L 273,280 L 273,270 L 272,269 L 272,266 L 271,265 L 271,263 L 270,262 L 270,261 L 268,259 L 268,258 L 260,250 L 259,250 L 258,249 L 257,249 L 255,247 L 254,247 L 253,246 L 252,246 L 251,245 L 250,245 L 249,244 L 248,244 L 247,243 L 246,243 L 245,242 L 244,242 L 243,241 L 242,241 L 241,240 L 240,240 L 239,239 L 238,239 L 237,238 L 236,238 L 235,237 L 234,237 L 233,236 L 232,236 L 231,235 L 230,235 L 229,234 L 228,234 L 227,233 L 226,233 L 225,232 L 225,231 L 224,230 L 224,223 L 226,221 L 226,220 L 229,217 L 230,217 L 231,216 L 232,216 L 233,215 L 235,215 L 236,214 L 296,214 L 297,215 L 296,216 L 296,225 L 297,226 L 297,227 L 296,228 L 296,301 L 297,302 L 269,330 L 188,330 L 187,331 L 186,331 L 184,333 L 184,334 L 183,335 L 183,337 L 182,338 L 183,339 L 183,341 L 185,343 L 185,344 L 186,344 L 187,345 L 233,345 L 234,346 L 234,368 L 228,374 L 228,375 L 227,376 L 227,377 L 226,378 L 226,387 L 227,388 L 227,389 L 228,390 L 228,391 L 230,393 L 230,394 L 231,394 L 233,396 L 234,396 L 235,397 L 236,397 L 237,398 L 246,398 L 247,397 L 248,397 L 249,396 L 250,396 L 251,395 L 252,395 L 254,393 L 254,392 L 256,390 L 256,389 L 257,388 L 257,385 L 258,384 L 258,381 L 257,380 L 257,377 L 256,376 L 256,375 L 255,374 L 255,373 L 252,370 L 251,370 L 250,369 L 249,369 L 248,368 L 248,346 L 249,345 L 274,345 L 275,344 L 276,344 L 298,322 L 311,335 L 311,336 L 312,336 L 313,337 L 313,338 L 314,339 L 315,339 L 317,341 L 317,342 L 319,344 L 320,344 L 325,349 L 325,350 L 327,352 L 328,352 L 329,353 L 329,354 L 330,355 L 329,356 L 329,366 L 330,367 L 330,368 L 332,370 L 332,371 L 333,372 L 334,372 L 336,374 L 337,374 L 338,375 L 339,375 L 340,376 L 349,376 L 350,375 L 352,375 L 354,373 L 355,373 L 358,370 L 358,369 L 359,368 L 359,367 L 360,366 L 360,364 L 361,363 L 361,356 L 360,355 L 360,354 L 359,353 L 359,352 L 358,351 L 358,350 L 356,348 L 355,348 L 353,346 L 352,346 L 351,345 L 348,345 L 347,344 L 343,344 L 342,345 L 341,345 L 331,335 L 330,335 L 329,334 L 329,333 L 325,329 L 324,329 L 323,328 L 323,327 L 308,312 L 313,307 L 313,266 L 312,265 L 313,264 L 365,264 L 366,265 L 366,266 L 369,269 L 370,269 L 371,270 L 372,270 L 373,271 L 375,271 L 376,272 L 383,272 L 384,271 L 386,271 L 387,270 L 388,270 L 394,264 L 394,263 L 395,262 L 395,261 L 396,260 L 396,250 L 395,249 L 395,247 L 393,245 L 393,244 L 390,241 L 389,241 L 387,239 L 385,239 L 384,238 L 374,238 L 373,239 L 372,239 L 371,240 L 370,240 L 364,246 L 314,246 L 313,245 L 313,205 L 320,198 L 320,197 L 328,189 L 328,188 L 338,178 L 338,177 L 348,167 L 348,166 L 351,163 L 353,163 L 354,164 L 359,164 L 360,163 L 363,163 L 365,161 L 366,161 L 371,156 L 371,155 L 372,154 L 372,152 L 373,151 L 373,143 L 372,142 L 372,140 L 370,138 L 370,137 L 366,133 L 365,133 L 364,132 L 363,132 L 362,131 L 359,131 L 358,130 Z" fill="#00c4ff" stroke="#00c4ff" stroke-width="1"/>
</svg>
