<?xml version="1.0" encoding="UTF-8"?>
<svg xmlns="http://www.w3.org/2000/svg"
     width="36" height="36"
     viewBox="100 100 312 312">
  <g fill-rule="evenodd">
    <!-- violet -->
    <path fill="#a84fd4"
          d="M187 141L185 143L184 143L140 187L140 188L139 189L139 190L138 191L138 299L139 300L139 301L140 302L140 303L141 304L140 305L141 304L143 306L144 306L145 307L150 307L151 306L152 306L155 303L155 302L156 301L156 195L159 192L160 192L160 191L167 184L168 184L170 182L170 181L171 180L172 180L172 179L175 176L176 176L176 175L179 172L180 172L180 171L192 159L299 159L300 158L301 158L303 156L304 156L304 155L305 154L305 153L306 152L306 148L305 147L305 146L301 142L299 142L298 141Z"/>
    <!-- cyan -->
    <path fill="#00c4ff"
          d="M354 130L353 131L350 131L349 132L348 132L346 134L345 134L342 137L342 138L340 140L340 142L339 143L339 150L340 151L340 153L305 188L305 189L304 190L303 190L303 191L300 194L232 194L231 195L228 195L227 196L225 196L224 197L222 197L221 198L220 198L218 200L217 200L213 204L212 204L209 207L209 208L207 210L207 211L206 212L206 213L205 214L205 215L204 216L204 217L203 218L203 220L202 221L202 226L201 227L201 236L202 237L202 240L203 241L203 243L204 244L204 245L207 248L208 248L210 250L209 251L210 250L211 250L212 251L213 251L214 252L215 252L216 253L217 253L218 254L219 254L220 255L221 255L222 256L223 256L224 257L225 257L226 258L227 258L228 259L229 259L230 260L231 260L232 261L233 261L234 262L235 262L236 263L237 263L238 264L239 264L240 265L241 265L242 266L243 266L245 268L246 268L250 272L250 274L251 275L251 278L250 279L250 281L244 287L243 287L242 288L240 288L239 289L186 289L135 340L128 340L127 341L125 341L124 342L123 342L121 344L120 344L118 346L118 347L116 349L116 351L115 352L115 361L116 362L116 363L117 364L117 365L122 370L123 370L124 371L125 371L126 372L128 372L129 373L133 373L134 372L137 372L138 371L139 371L142 368L143 368L144 367L144 366L146 364L146 362L147 361L147 358L148 357L148 356L147 355L147 350L151 346L152 346L152 345L153 344L154 344L154 343L158 339L159 339L160 338L160 337L162 335L163 335L168 330L168 329L169 328L170 328L189 309L243 309L244 308L247 308L248 307L250 307L251 306L252 306L253 305L254 305L255 304L256 304L257 303L258 303L261 300L262 300L266 296L266 295L268 293L268 292L269 291L269 290L270 289L270 288L271 287L271 286L272 285L272 281L273 280L273 270L272 269L272 266L271 265L271 263L270 262L270 261L268 259L268 258L260 250L259 250L258 249L257 249L255 247L254 247L253 246L252 246L251 245L250 245L249 244L248 244L247 243L246 243L245 242L244 242L243 241L242 241L241 240L240 240L239 239L238 239L237 238L236 238L235 237L234 237L233 236L232 236L231 235L230 235L229 234L228 234L227 233L226 233L225 232L225 231L224 230L224 223L226 221L226 220L229 217L230 217L231 216L232 216L233 215L235 215L236 214L296 214L297 215L296 216L296 225L297 226L297 227L296 228L296 301L297 302L269 330L188 330L187 331L186 331L184 333L184 334L183 335L183 337L182 338L183 339L183 341L185 343L185 344L186 344L187 345L233 345L234 346L234 368L228 374L228 375L227 376L227 377L226 378L226 387L227 388L227 389L228 390L228 391L230 393L230 394L231 394L233 396L234 396L235 397L236 397L237 398L246 398L247 397L248 397L249 396L250 396L251 395L252 395L254 393L254 392L256 390L256 389L257 388L257 385L258 384L258 381L257 380L257 377L256 376L256 375L255 374L255 373L252 370L251 370L250 369L249 369L248 368L248 346L249 345L274 345L275 344L276 344L298 322L311 335L311 336L312 336L313 337L313 338L314 339L315 339L317 341L317 342L319 344L320 344L325 349L325 350L327 352L328 352L329 353L329 354L330 355L329 356L329 366L330 367L330 368L332 370L332 371L333 372L334 372L336 374L337 374L338 375L339 375L340 376L349 376L350 375L352 375L354 373L355 373L358 370L358 369L359 368L359 367L360 366L360 364L361 363L361 356L360 355L360 354L359 353L359 352L358 351L358 350L356 348L355 348L353 346L352 346L351 345L348 345L347 344L343 344L342 345L341 345L331 335L330 335L329 334L329 333L325 329L324 329L323 328L323 327L308 312L313 307L313 266L312 265L313 264L365 264L366 265L366 266L369 269L370 269L371 270L372 270L373 271L375 271L376 272L383 272L384 271L386 271L387 270L388 270L394 264L394 263L395 262L395 261L396 260L396 250L395 249L395 247L393 245L393 244L390 241L389 241L387 239L385 239L384 238L374 238L373 239L372 239L371 240L370 240L364 246L314 246L313 245L313 205L320 198L320 197L328 189L328 188L338 178L338 177L348 167L348 166L351 163L353 163L354 164L359 164L360 163L363 163L365 161L366 161L371 156L371 155L372 154L372 152L373 151L373 143L372 142L372 140L370 138L370 137L366 133L365 133L364 132L363 132L362 131L359 131L358 130Z"/>
  </g>
</svg>
